<svg width="83" height="19" viewBox="0 0 83 19" version="1.1" xmlns="http://www.w3.org/2000/svg" xmlns:xlink="http://www.w3.org/1999/xlink">
<title>icon</title>
<desc>Created using Figma</desc>
<g id="Canvas" transform="translate(2374 843)">
<g id="icon">
<g id="Vector">
<use xlink:href="#path0_fill" transform="translate(-2350.31 -838.214)" fill="#FFFFFF"/>
</g>
<g id="Group">
<g id="Vector">
<use xlink:href="#path1_fill" transform="translate(-2373.51 -841.783)" fill="url(#paint1_linear)"/>
</g>
<g id="Vector">
<use xlink:href="#path2_fill" transform="translate(-2364.42 -835.974)" fill="url(#paint2_linear)"/>
</g>
<g id="Vector">
<use xlink:href="#path3_fill" transform="translate(-2373.16 -833.035)" fill="url(#paint3_linear)"/>
</g>
<g id="Vector">
<use xlink:href="#path4_fill" transform="translate(-2373.16 -842.013)" fill="url(#paint4_linear)"/>
</g>
<g id="Group">
<g id="Vector" opacity="0.2">
<use xlink:href="#path5_fill" transform="translate(-2373.16 -830.166)"/>
</g>
<g id="Vector" opacity="0.12">
<use xlink:href="#path6_fill" transform="translate(-2373.44 -825.407)"/>
</g>
</g>
<g id="Vector" opacity="0.12">
<use xlink:href="#path7_fill" transform="translate(-2361.55 -833.035)"/>
</g>
<g id="Vector" opacity="0.25">
<use xlink:href="#path8_fill" transform="translate(-2373.44 -842.015)" fill="#FFFFFF"/>
</g>
</g>
</g>
</g>
<defs>
<linearGradient id="paint1_linear" x1="0" y1="0" x2="1" y2="0" gradientUnits="userSpaceOnUse" gradientTransform="matrix(-11.7446 11.7446 11.7446 11.7446 2.45531 -5.02575)">
<stop offset="0" stop-color="#00A0FF"/>
<stop offset="0.00657445" stop-color="#00A1FF"/>
<stop offset="0.2601" stop-color="#00BEFF"/>
<stop offset="0.5122" stop-color="#00D2FF"/>
<stop offset="0.7604" stop-color="#00DFFF"/>
<stop offset="1" stop-color="#00E3FF"/>
</linearGradient>
<linearGradient id="paint2_linear" x1="0" y1="0" x2="1" y2="0" gradientUnits="userSpaceOnUse" gradientTransform="matrix(-16.9334 0 0 16.9334 7.6521 -5.5265)">
<stop offset="0" stop-color="#FFE000"/>
<stop offset="0.4087" stop-color="#FFBD00"/>
<stop offset="0.7754" stop-color="#FFA500"/>
<stop offset="1" stop-color="#FF9C00"/>
</linearGradient>
<linearGradient id="paint3_linear" x1="0" y1="0" x2="1" y2="0" gradientUnits="userSpaceOnUse" gradientTransform="matrix(-15.9267 15.9267 15.9267 15.9267 2.13294 -6.35649)">
<stop offset="0" stop-color="#FF3A44"/>
<stop offset="1" stop-color="#C31162"/>
</linearGradient>
<linearGradient id="paint4_linear" x1="0" y1="0" x2="1" y2="0" gradientUnits="userSpaceOnUse" gradientTransform="matrix(7.11198 7.11191 7.11191 -7.11198 -5.72728 -1.3393)">
<stop offset="0" stop-color="#32A071"/>
<stop offset="0.0685" stop-color="#2DA771"/>
<stop offset="0.4762" stop-color="#15CF74"/>
<stop offset="0.8009" stop-color="#06E775"/>
<stop offset="1" stop-color="#00F076"/>
</linearGradient>
<path id="path0_fill" d="M 18.8951 3.28915C 17.2155 3.28915 15.8859 4.54882 15.8859 6.29837C 15.8859 7.97793 17.2155 9.30759 18.8951 9.30759C 20.5747 9.30759 21.9043 8.04792 21.9043 6.29837C 21.9043 4.47884 20.5747 3.28915 18.8951 3.28915ZM 18.8951 8.04792C 17.9853 8.04792 17.2155 7.27812 17.2155 6.22839C 17.2155 5.17866 17.9853 4.40886 18.8951 4.40886C 19.8049 4.40886 20.5747 5.10868 20.5747 6.22839C 20.5747 7.27812 19.8049 8.04792 18.8951 8.04792ZM 12.3868 3.28915C 10.7072 3.28915 9.37757 4.54882 9.37757 6.29837C 9.37757 7.97793 10.7072 9.30759 12.3868 9.30759C 14.0664 9.30759 15.396 8.04792 15.396 6.29837C 15.396 4.47884 14.0664 3.28915 12.3868 3.28915ZM 12.3868 8.04792C 11.477 8.04792 10.7072 7.27812 10.7072 6.22839C 10.7072 5.17866 11.477 4.40886 12.3868 4.40886C 13.2966 4.40886 14.0664 5.10868 14.0664 6.22839C 14.0664 7.27812 13.2966 8.04792 12.3868 8.04792ZM 4.6188 4.19891L 4.6188 5.45859L 7.62802 5.45859C 7.55804 6.15841 7.27812 6.71826 6.92821 7.06817C 6.50831 7.48806 5.8085 7.97793 4.6188 7.97793C 2.72929 7.97793 1.32966 6.50832 1.32966 4.6188C 1.32966 2.72929 2.79928 1.25967 4.6188 1.25967C 5.59855 1.25967 6.36835 1.67957 6.92821 2.16944L 7.83797 1.25967C 7.06817 0.559855 6.08842 2.6696e-07 4.68879 2.6696e-07C 2.16944 2.6696e-07 -1.06784e-06 2.09946 -1.06784e-06 4.6188C -1.06784e-06 7.13815 2.16944 9.23761 4.68879 9.23761C 6.08842 9.23761 7.06817 8.81772 7.90795 7.90795C 8.74774 7.06817 9.02766 5.87848 9.02766 4.96871C 9.02766 4.68879 9.02766 4.40886 8.95768 4.19891L 4.6188 4.19891ZM 36.3906 5.17866C 36.1106 4.47884 35.4108 3.28915 33.8712 3.28915C 32.3316 3.28915 31.072 4.47884 31.072 6.29837C 31.072 7.97793 32.3316 9.30759 34.0112 9.30759C 35.3408 9.30759 36.1806 8.46781 36.4606 7.97793L 35.4808 7.27812C 35.1309 7.76799 34.711 8.1179 34.0112 8.1179C 33.3114 8.1179 32.8915 7.83797 32.5416 7.20813L 36.5305 5.52857L 36.3906 5.17866ZM 32.3316 6.15841C 32.3316 5.0387 33.2414 4.40886 33.8712 4.40886C 34.3611 4.40886 34.851 4.68879 34.9909 5.03869L 32.3316 6.15841ZM 29.0425 9.02766L 30.3721 9.02766L 30.3721 0.279928L 29.0425 0.279928L 29.0425 9.02766ZM 26.943 3.91899C 26.5931 3.56908 26.0333 3.21917 25.3334 3.21917C 23.8638 3.21917 22.4642 4.54882 22.4642 6.22839C 22.4642 7.90795 23.7938 9.16763 25.3334 9.16763C 26.0333 9.16763 26.5931 8.81772 26.873 8.46781L 26.943 8.46781L 26.943 8.8877C 26.943 10.0074 26.3132 10.6372 25.3334 10.6372C 24.5636 10.6372 24.0038 10.0774 23.8638 9.58752L 22.7441 10.0774C 23.094 10.8472 23.9338 11.8269 25.4034 11.8269C 26.943 11.8269 28.2027 10.9172 28.2027 8.74773L 28.2027 3.42911L 26.943 3.42911L 26.943 3.91899ZM 25.4034 8.04792C 24.4937 8.04792 23.7239 7.27812 23.7239 6.22839C 23.7239 5.17866 24.4937 4.40886 25.4034 4.40886C 26.3132 4.40886 27.013 5.17866 27.013 6.22839C 27.013 7.27812 26.3132 8.04792 25.4034 8.04792ZM 42.479 0.279928L 39.3298 0.279928L 39.3298 9.02766L 40.6595 9.02766L 40.6595 5.73851L 42.479 5.73851C 43.9486 5.73851 45.3483 4.68879 45.3483 3.00922C 45.3483 1.32966 43.9486 0.279928 42.479 0.279928ZM 42.549 4.47884L 40.6595 4.47884L 40.6595 1.46962L 42.549 1.46962C 43.5287 1.46962 44.0886 2.3094 44.0886 2.93924C 44.0186 3.70904 43.4588 4.47884 42.549 4.47884ZM 50.5969 3.21917C 49.6172 3.21917 48.6374 3.63906 48.2875 4.54882L 49.4772 5.03869C 49.7571 4.54882 50.177 4.40886 50.6669 4.40886C 51.3667 4.40886 51.9965 4.82875 52.0665 5.52857L 52.0665 5.59855C 51.8566 5.45859 51.2967 5.24864 50.7369 5.24864C 49.4772 5.24864 48.2175 5.94846 48.2175 7.20813C 48.2175 8.39783 49.2672 9.16763 50.387 9.16763C 51.2967 9.16763 51.7166 8.74774 52.0665 8.32784L 52.1365 8.32784L 52.1365 9.02766L 53.3962 9.02766L 53.3962 5.66853C 53.2562 4.12893 52.0665 3.21917 50.5969 3.21917ZM 50.4569 8.04792C 50.037 8.04792 49.4072 7.83797 49.4072 7.27812C 49.4072 6.5783 50.177 6.36835 50.8068 6.36835C 51.3667 6.36835 51.6466 6.50831 51.9965 6.64828C 51.8566 7.48806 51.1568 8.04792 50.4569 8.04792ZM 57.805 3.42911L 56.3354 7.20813L 56.2654 7.20813L 54.7258 3.42911L 53.3262 3.42911L 55.6356 8.74773L 54.3059 11.687L 55.6356 11.687L 59.2047 3.42911L 57.805 3.42911ZM 46.0481 9.02766L 47.3777 9.02766L 47.3777 0.279928L 46.0481 0.279928L 46.0481 9.02766Z"/>
<path id="path1_fill" d="M 0.349909 0C 0.139963 0.209946 -2.6696e-07 0.559855 -2.6696e-07 0.979746L -2.6696e-07 16.4457C -2.6696e-07 16.8656 0.139963 17.2155 0.349909 17.4255L 0.419891 17.4955L 9.09765 8.81772L 9.09765 8.74774L 9.09765 8.67775L 0.349909 0Z"/>
<path id="path2_fill" d="M 2.86926 5.94846L 1.06784e-06 3.0792L 1.06784e-06 2.93924L 1.06784e-06 2.86926L 2.86926 -5.33919e-07L 2.93924 0.0699816L 6.36835 2.02948C 7.3481 2.58933 7.3481 3.49909 6.36835 4.05895L 2.86926 5.94846Z"/>
<path id="path3_fill" d="M 11.687 2.93924L 8.74774 0L -2.6696e-07 8.74774C 0.349909 9.09764 0.839783 9.09764 1.46962 8.81772L 11.687 2.93924Z"/>
<path id="path4_fill" d="M 11.687 6.03854L 1.46962 0.230048C 0.839783 -0.119861 0.349909 -0.0498791 -2.6696e-07 0.30003L 8.74774 8.97778L 11.687 6.03854Z"/>
<path id="path5_fill" d="M 11.617 -1.06784e-06L 1.46962 5.73851C 0.909764 6.08842 0.419891 6.01844 0.0699819 5.73851L -2.6696e-07 5.8085L 0.0699819 5.87848C 0.419891 6.15841 0.909764 6.22839 1.46962 5.87848L 11.617 -1.06784e-06Z"/>
<path id="path6_fill" d="M 0.279927 0.979746C 0.0699816 0.7698 0 0.419892 0 1.06784e-06L 0 0.0699819C 0 0.489873 0.139964 0.839784 0.349909 1.04973L 0.349909 0.979746L 0.279927 0.979746Z"/>
<path id="path7_fill" d="M 3.49909 0.909764L 0 2.86926L 0.0699808 2.93924L 3.49909 0.979746C 3.98897 0.699819 4.19891 0.349909 4.19891 -2.48626e-15C 4.19891 0.349909 3.91899 0.629836 3.49909 0.909764Z"/>
<path id="path8_fill" d="M 1.74955 0.302601L 15.396 8.07059C 15.8159 8.35052 16.0958 8.63045 16.0958 8.98036C 16.0958 8.63045 15.8859 8.28054 15.396 8.00061L 1.74955 0.232619C 0.769801 -0.327236 0 0.162637 0 1.28235L 0 1.35233C 0 0.232619 0.769801 -0.257254 1.74955 0.302601Z"/>
</defs>
</svg>
