<svg width="72" height="15" viewBox="0 0 72 15" version="1.1" xmlns="http://www.w3.org/2000/svg" xmlns:xlink="http://www.w3.org/1999/xlink">
<title>icon</title>
<desc>Created using Figma</desc>
<g id="Canvas" transform="translate(2537 842)">
<g id="icon">
<g id="&#60;Group&#62;">
<g id="&#60;Group&#62;">
<g id="&#60;Path&#62;">
<use xlink:href="#path0_fill" transform="translate(-2536.75 -838.34)" fill="#FFFFFF"/>
</g>
<g id="&#60;Path&#62;">
<use xlink:href="#path1_fill" transform="translate(-2530.71 -841.94)" fill="#FFFFFF"/>
</g>
</g>
</g>
<g id="Group">
<g id="Vector">
<use xlink:href="#path2_fill" transform="translate(-2516.56 -837.582)" fill="#FFFFFF"/>
</g>
<g id="Vector">
<use xlink:href="#path3_fill" transform="translate(-2508.2 -835.343)" fill="#FFFFFF"/>
</g>
<g id="Vector">
<use xlink:href="#path4_fill" transform="translate(-2501.37 -835.343)" fill="#FFFFFF"/>
</g>
<g id="Vector">
<use xlink:href="#path5_fill" transform="translate(-2492.32 -837.724)" fill="#FFFFFF"/>
</g>
<g id="Vector">
<use xlink:href="#path6_fill" transform="translate(-2485.22 -836.745)" fill="#FFFFFF"/>
</g>
<g id="Vector">
<use xlink:href="#path7_fill" transform="translate(-2481.17 -835.353)" fill="#FFFFFF"/>
</g>
<g id="Vector">
<use xlink:href="#path8_fill" transform="translate(-2474.24 -835.343)" fill="#FFFFFF"/>
</g>
<g id="Vector">
<use xlink:href="#path9_fill" transform="translate(-2470.79 -835.353)" fill="#FFFFFF"/>
</g>
</g>
</g>
</g>
<defs>
<path id="path0_fill" d="M 10.1417 4.33681C 10.149 3.76476 10.301 3.20386 10.5834 2.70631C 10.8658 2.20877 11.2694 1.79073 11.7568 1.4911C 11.4472 1.04893 11.0387 0.685037 10.5639 0.42833C 10.089 0.171622 9.56088 0.0291716 9.02135 0.0122911C 7.87045 -0.108513 6.7547 0.700974 6.16822 0.700974C 5.57039 0.700974 4.66741 0.0242851 3.69505 0.0442911C 3.06611 0.0646111 2.45315 0.247505 1.9159 0.575153C 1.37865 0.902801 0.935437 1.36403 0.629441 1.9139C -0.696069 4.20881 0.292642 7.58156 1.56237 9.43659C 2.19764 10.3449 2.94009 11.3596 3.91157 11.3236C 4.86222 11.2842 5.21727 10.7174 6.36479 10.7174C 7.50166 10.7174 7.83477 11.3236 8.82596 11.3007C 9.84605 11.2842 10.4888 10.3884 11.1017 9.4714C 11.5582 8.82416 11.9094 8.10882 12.1424 7.35188C 11.5498 7.10122 11.044 6.68165 10.6882 6.14548C 10.3324 5.60932 10.1424 4.98028 10.1417 4.33681Z"/>
<path id="path1_fill" d="M 2.2251 2.39237C 2.7813 1.72468 3.05531 0.866469 2.98896 1.07508e-07C 2.13921 0.0892496 1.35429 0.495373 0.790574 1.13745C 0.514957 1.45112 0.303865 1.81604 0.169364 2.21134C 0.034863 2.60664 -0.0204088 3.02458 0.00670769 3.44125C 0.431734 3.44563 0.852212 3.35351 1.23647 3.17182C 1.62074 2.99014 1.95876 2.72363 2.2251 2.39237Z"/>
<path id="path2_fill" d="M 5.3973 6.21053L 2.15316 6.21053L 1.37409 8.51095L -6.97754e-07 8.51095L 3.0728 1.40136e-07L 4.50043 1.40136e-07L 7.57322 8.51095L 6.1757 8.51095L 5.3973 6.21053ZM 2.48916 5.14901L 5.06067 5.14901L 3.793 1.4156L 3.75752 1.4156L 2.48916 5.14901Z"/>
<path id="path3_fill" d="M 5.84509 3.16899C 5.84509 5.09727 4.81302 6.33615 3.25554 6.33615C 2.861 6.35679 2.46863 6.26591 2.12334 6.07391C 1.77805 5.88191 1.49381 5.59656 1.30317 5.25052L 1.27369 5.25052L 1.27369 8.32399L 1.8406e-08 8.32399L 1.8406e-08 0.0660699L 1.23289 0.0660699L 1.23289 1.09814L 1.25631 1.09814C 1.45573 0.753768 1.74477 0.469894 2.09268 0.276724C 2.4406 0.083555 2.83437 -0.0116824 3.23211 0.00114435C 4.80697 0.0011512 5.84509 1.24606 5.84509 3.16899ZM 4.53592 3.16899C 4.53592 1.9127 3.88669 1.08677 2.89611 1.08677C 1.92294 1.08677 1.26836 1.9301 1.26836 3.16899C 1.26836 4.41926 1.92294 5.25656 2.89611 5.25656C 3.8867 5.25656 4.53592 4.43666 4.53592 3.16899Z"/>
<path id="path4_fill" d="M 5.84509 3.16898C 5.84509 5.09726 4.81302 6.33615 3.25554 6.33615C 2.861 6.35678 2.46863 6.2659 2.12334 6.0739C 1.77805 5.8819 1.49381 5.59655 1.30317 5.25052L 1.27369 5.25052L 1.27369 8.32398L -2.59357e-08 8.32398L -2.59357e-08 0.0660634L 1.23286 0.0660634L 1.23286 1.09814L 1.25629 1.09814C 1.4557 0.753762 1.74474 0.469888 2.09266 0.27672C 2.44058 0.0835522 2.83435 -0.0116843 3.23209 0.00114437C 4.80699 0.00114437 5.84509 1.24605 5.84509 3.16898ZM 4.53592 3.16898C 4.53592 1.91269 3.88669 1.08676 2.89611 1.08676C 1.92294 1.08676 1.26836 1.93009 1.26836 3.16898C 1.26836 4.41925 1.92294 5.25656 2.89611 5.25656C 3.8867 5.25656 4.53593 4.43665 4.53593 3.16898L 4.53592 3.16898Z"/>
<path id="path5_fill" d="M 1.30383 6.2815C 1.39821 7.1255 2.21812 7.67965 3.33853 7.67965C 4.4121 7.67965 5.18448 7.12547 5.18448 6.36446C 5.18448 5.70385 4.71864 5.3083 3.61562 5.03722L 2.51261 4.7715C 0.949776 4.39402 0.224238 3.66313 0.224238 2.47711C 0.224238 1.00865 1.50396 2.35931e-07 3.32113 2.35931e-07C 5.11954 2.35931e-07 6.35242 1.00865 6.39392 2.47711L 5.10817 2.47711C 5.0312 1.62776 4.32909 1.11507 3.30304 1.11507C 2.27699 1.11507 1.57489 1.63379 1.57489 2.38877C 1.57489 2.99048 2.02333 3.34454 3.12032 3.61558L 4.05802 3.84583C 5.80424 4.25879 6.52978 4.96024 6.52978 6.20514C 6.52978 7.79742 5.26143 8.79469 3.24414 8.79469C 1.35668 8.79469 0.0823254 7.82085 -1.48084e-06 6.28143L 1.30383 6.2815Z"/>
<path id="path6_fill" d="M 2.18194 5.98195e-07L 2.18194 1.46846L 3.36193 1.46846L 3.36193 2.47711L 2.18194 2.47711L 2.18194 5.89795C 2.18194 6.42938 2.41821 6.67702 2.93692 6.67702C 3.077 6.67458 3.21686 6.66474 3.35591 6.64755L 3.35591 7.65018C 3.1227 7.69375 2.88566 7.71349 2.64845 7.70908C 1.39216 7.70908 0.902223 7.23721 0.902223 6.03379L 0.902223 2.47711L 3.73139e-07 2.47711L 3.73139e-07 1.46846L 0.902207 1.46846L 0.902207 5.98195e-07L 2.18194 5.98195e-07Z"/>
<path id="path7_fill" d="M 1.67327e-06 3.17921C 1.67327e-06 1.22684 1.14987 2.80691e-07 2.94295 2.80691e-07C 4.74205 2.80691e-07 5.88657 1.22682 5.88657 3.17921C 5.88657 5.13694 4.74808 6.35843 2.94295 6.35843C 1.13846 6.35843 1.67327e-06 5.13694 1.67327e-06 3.17921ZM 4.58878 3.17921C 4.58878 1.83993 3.97502 1.04948 2.94295 1.04948C 1.91087 1.04948 1.29779 1.84595 1.29779 3.17921C 1.29779 4.52385 1.91087 5.30829 2.94295 5.30829C 3.97502 5.30829 4.58875 4.52385 4.58875 3.17921L 4.58878 3.17921Z"/>
<path id="path8_fill" d="M 5.51343e-06 0.0660111L 1.2148 0.0660111L 1.2148 1.12217L 1.24427 1.12217C 1.32646 0.792308 1.5197 0.500798 1.79151 0.296636C 2.06332 0.0924742 2.39713 -0.0118932 2.73683 0.00107774C 2.88361 0.000565242 3.02999 0.0165071 3.17322 0.0486026L 3.17322 1.23997C 2.98791 1.18335 2.79461 1.15735 2.60093 1.163C 2.4159 1.1555 2.23143 1.18812 2.06019 1.25864C 1.88896 1.32915 1.73501 1.43589 1.60892 1.57152C 1.48283 1.70714 1.38758 1.86845 1.32972 2.04437C 1.27185 2.22028 1.25274 2.40664 1.27369 2.59063L 1.27369 6.27116L 2.84456e-07 6.27116L 5.51343e-06 0.0660111Z"/>
<path id="path9_fill" d="M 5.59743 4.45893C 5.42608 5.58538 4.32908 6.35843 2.92555 6.35843C 1.12042 6.35843 -1.34029e-06 5.14899 -1.34029e-06 3.20866C -1.34029e-06 1.26232 1.12644 5.98194e-07 2.872 5.98194e-07C 4.58878 5.98194e-07 5.66838 1.17932 5.66838 3.06075L 5.66838 3.49714L 1.28575 3.49714L 1.28575 3.57411C 1.26552 3.80247 1.29411 4.03253 1.36962 4.249C 1.44513 4.46546 1.56584 4.66339 1.72372 4.82962C 1.8816 4.99586 2.07304 5.1266 2.28533 5.21317C 2.49762 5.29973 2.7259 5.34014 2.955 5.33171C 3.25599 5.35991 3.55804 5.2902 3.81623 5.13295C 4.07442 4.97569 4.27494 4.7393 4.38799 4.45893L 5.59743 4.45893ZM 1.29176 2.60696L 4.39401 2.60696C 4.40544 2.40162 4.37431 2.19614 4.30257 2.00341C 4.23083 1.81067 4.12002 1.63485 3.9771 1.48697C 3.83419 1.33909 3.66225 1.22235 3.47208 1.14407C 3.28191 1.06578 3.07761 1.02766 2.872 1.03207C 2.66459 1.03084 2.45898 1.07069 2.26705 1.14933C 2.07511 1.22797 1.90065 1.34384 1.75374 1.49026C 1.60682 1.63668 1.49036 1.81074 1.41107 2.00241C 1.33178 2.19407 1.29123 2.39954 1.29176 2.60696L 1.29176 2.60696Z"/>
</defs>
</svg>
