<svg width="131" height="24" viewBox="0 0 131 24" version="1.1" xmlns="http://www.w3.org/2000/svg" xmlns:xlink="http://www.w3.org/1999/xlink">
<title>logo</title>
<desc>Created using Figma</desc>
<g id="Canvas" transform="translate(3198 839)">
<g id="logo">
<g id="Pet Rater">
<use xlink:href="#path0_fill" transform="translate(-3115.83 -838.281)" fill="#00BF72"/>
<use xlink:href="#path1_fill" transform="translate(-3115.83 -838.281)" fill="#00BF72"/>
<use xlink:href="#path2_fill" transform="translate(-3115.83 -838.281)" fill="#00BF72"/>
<use xlink:href="#path3_fill" transform="translate(-3115.83 -838.281)" fill="#00BF72"/>
<use xlink:href="#path4_fill" transform="translate(-3115.83 -838.281)" fill="#00BF72"/>
</g>
<g id="Pet Rater">
<use xlink:href="#path5_fill" transform="translate(-3150.21 -838.281)" fill="#FFFFFF"/>
<use xlink:href="#path6_fill" transform="translate(-3150.21 -838.281)" fill="#FFFFFF"/>
<use xlink:href="#path7_fill" transform="translate(-3150.21 -838.281)" fill="#FFFFFF"/>
</g>
<g id="Group">
<g id="Shape">
<use xlink:href="#path8_fill" transform="translate(-3198 -838.181)" fill="#43916F"/>
</g>
<g id="Shape">
<use xlink:href="#path9_fill" transform="translate(-3175.58 -838.281)" fill="#43916F"/>
</g>
<g id="Shape">
<use xlink:href="#path10_fill" transform="translate(-3187.23 -834.56)" fill="#FFFFFF"/>
</g>
<g id="Shape">
<use xlink:href="#path10_fill" transform="translate(-3170.49 -834.56)" fill="#FFFFFF"/>
</g>
<g id="Shape">
<use xlink:href="#path11_fill" transform="translate(-3189.46 -825.259)" fill="#FFFFFF"/>
</g>
<g id="Shape">
<use xlink:href="#path12_fill" transform="translate(-3177.54 -829.077)" fill="#FFFFFF"/>
</g>
</g>
</g>
</g>
<defs>
<path id="path0_fill" d="M 3.68476 7.7095L 2.72911 7.7095L 2.72911 12.0375C 2.72911 12.6072 2.60353 13.0268 2.35236 13.2964C 2.1012 13.5659 1.77346 13.7007 1.36915 13.7007C 0.934206 13.7007 0.59728 13.5598 0.358368 13.278C 0.119456 12.9962 0 12.5827 0 12.0375L 0 1.67238C 0 1.08429 0.131707 0.658539 0.395123 0.395123C 0.658538 0.131708 1.08429 0 1.67238 0L 6.11063 0C 6.72322 0 7.24699 0.0275667 7.68193 0.0827002C 8.11688 0.131708 8.50894 0.235849 8.85812 0.395123C 9.28081 0.572776 9.65449 0.827002 9.97916 1.1578C 10.3038 1.4886 10.5489 1.87454 10.7143 2.31561C 10.8858 2.75055 10.9716 3.21306 10.9716 3.70313C 10.9716 4.70779 10.6867 5.51029 10.117 6.11063C 9.55341 6.71097 8.69578 7.13672 7.5441 7.38789C 8.02805 7.64518 8.49056 8.02499 8.93163 8.52731C 9.37269 9.02964 9.76475 9.56566 10.1078 10.1354C 10.457 10.699 10.7265 11.2105 10.9164 11.6699C 11.1125 12.1232 11.2105 12.4357 11.2105 12.6072C 11.2105 12.7848 11.1523 12.9625 11.0359 13.1402C 10.9256 13.3117 10.7725 13.4464 10.5764 13.5445C 10.3804 13.6486 10.1538 13.7007 9.89646 13.7007C 9.59016 13.7007 9.33288 13.6272 9.1246 13.4801C 8.91631 13.3392 8.7356 13.1585 8.58245 12.938C 8.43542 12.7175 8.23327 12.3928 7.97598 11.964L 6.8825 10.1446C 6.49044 9.47684 6.1382 8.96838 5.82578 8.6192C 5.51948 8.27002 5.20705 8.03111 4.8885 7.90247C 4.56995 7.77382 4.16871 7.7095 3.68476 7.7095ZM 5.24687 2.04913L 2.72911 2.04913L 2.72911 5.75226L 5.17336 5.75226C 5.82884 5.75226 6.38017 5.69713 6.82737 5.58686C 7.27456 5.47047 7.61455 5.2775 7.84734 5.00796C 8.08625 4.73229 8.2057 4.35555 8.2057 3.87772C 8.2057 3.50404 8.11075 3.1763 7.92085 2.89451C 7.73094 2.60659 7.46753 2.39218 7.1306 2.25128C 6.81205 2.11651 6.18414 2.04913 5.24687 2.04913Z"/>
<path id="path1_fill" d="M 19.6 12.2856C 18.9935 12.7573 18.4054 13.1126 17.8357 13.3515C 17.2721 13.5843 16.6381 13.7007 15.9336 13.7007C 15.2904 13.7007 14.7237 13.5751 14.2336 13.3239C 13.7497 13.0666 13.376 12.7205 13.1126 12.2856C 12.8492 11.8506 12.7175 11.3789 12.7175 10.8705C 12.7175 10.1844 12.9349 9.59935 13.3699 9.11541C 13.8048 8.63146 14.4021 8.30678 15.1617 8.14138C 15.321 8.10462 15.7161 8.02192 16.3471 7.89328C 16.9781 7.76463 17.5171 7.64824 17.9643 7.5441C 18.4177 7.43383 18.9077 7.30213 19.4346 7.14898C 19.4039 6.48737 19.2692 6.00343 19.0302 5.69713C 18.7975 5.3847 18.3104 5.22849 17.5692 5.22849C 16.9321 5.22849 16.4512 5.31732 16.1265 5.49497C 15.808 5.67262 15.5323 5.9391 15.2995 6.29441C 15.0729 6.64971 14.9105 6.88556 14.8125 7.00195C 14.7206 7.11222 14.5185 7.16735 14.2061 7.16735C 13.9243 7.16735 13.6792 7.07853 13.471 6.90088C 13.2688 6.7171 13.1677 6.48431 13.1677 6.20252C 13.1677 5.76145 13.3239 5.33263 13.6364 4.91607C 13.9488 4.49951 14.4358 4.15645 15.0974 3.88691C 15.759 3.61737 16.5829 3.4826 17.5692 3.4826C 18.6719 3.4826 19.5387 3.61431 20.1697 3.87772C 20.8006 4.13501 21.2448 4.54545 21.5021 5.10904C 21.7655 5.67262 21.8972 6.41999 21.8972 7.35113C 21.8972 7.93922 21.8941 8.43849 21.888 8.84893C 21.888 9.25937 21.8849 9.71575 21.8788 10.2181C 21.8788 10.6898 21.9554 11.1829 22.1085 11.6975C 22.2678 12.2059 22.3474 12.5337 22.3474 12.6807C 22.3474 12.938 22.2249 13.1738 21.9799 13.3883C 21.741 13.5965 21.4684 13.7007 21.1621 13.7007C 20.9048 13.7007 20.6506 13.5812 20.3994 13.3423C 20.1482 13.0973 19.8818 12.745 19.6 12.2856ZM 19.4346 8.65596C 19.067 8.79073 18.531 8.93469 17.8265 9.08784C 17.1281 9.23486 16.6442 9.34513 16.3746 9.41864C 16.1051 9.48602 15.8478 9.62386 15.6028 9.83214C 15.3577 10.0343 15.2352 10.3192 15.2352 10.6867C 15.2352 11.0665 15.3792 11.3912 15.6671 11.6607C 15.955 11.9242 16.3318 12.0559 16.7973 12.0559C 17.2935 12.0559 17.7499 11.9487 18.1665 11.7342C 18.5892 11.5137 18.8985 11.2319 19.0946 10.8889C 19.3212 10.5091 19.4346 9.88421 19.4346 9.01433L 19.4346 8.65596Z"/>
<path id="path2_fill" d="M 24.222 3.72151L 24.4977 3.72151L 24.4977 2.21453C 24.4977 1.81022 24.5068 1.49473 24.5252 1.26807C 24.5497 1.03528 24.611 0.836191 24.709 0.670791C 24.807 0.499264 24.9479 0.361431 25.1317 0.25729C 25.3155 0.147023 25.5207 0.0918892 25.7473 0.0918892C 26.0659 0.0918892 26.3538 0.211345 26.6111 0.450257C 26.7826 0.609531 26.8898 0.805562 26.9327 1.03835C 26.9817 1.26501 27.0062 1.58968 27.0062 2.01237L 27.0062 3.72151L 27.9251 3.72151C 28.2804 3.72151 28.55 3.80727 28.7337 3.9788C 28.9236 4.1442 29.0186 4.35861 29.0186 4.62203C 29.0186 4.95895 28.8838 5.1948 28.6143 5.32957C 28.3509 5.46434 27.9711 5.53173 27.4749 5.53173L 27.0062 5.53173L 27.0062 10.1446C 27.0062 10.5366 27.0185 10.8399 27.043 11.0543C 27.0736 11.2625 27.1471 11.4341 27.2635 11.5688C 27.386 11.6975 27.5821 11.7618 27.8516 11.7618C 27.9986 11.7618 28.1977 11.7373 28.4489 11.6883C 28.7 11.6332 28.8961 11.6056 29.037 11.6056C 29.2391 11.6056 29.4198 11.6883 29.5791 11.8537C 29.7445 12.013 29.8272 12.2121 29.8272 12.451C 29.8272 12.8553 29.6067 13.1647 29.1656 13.3791C 28.7246 13.5935 28.0905 13.7007 27.2635 13.7007C 26.4794 13.7007 25.8852 13.569 25.4809 13.3056C 25.0766 13.0421 24.8101 12.6776 24.6814 12.2121C 24.5589 11.7465 24.4977 11.1247 24.4977 10.3467L 24.4977 5.53173L 24.1669 5.53173C 23.8054 5.53173 23.5298 5.44596 23.3398 5.27444C 23.1499 5.10291 23.055 4.88544 23.055 4.62203C 23.055 4.35861 23.153 4.1442 23.349 3.9788C 23.5512 3.80727 23.8422 3.72151 24.222 3.72151Z"/>
<path id="path3_fill" d="M 37.5183 9.21648L 32.6115 9.21648C 32.6176 9.7862 32.7309 10.2885 32.9515 10.7235C 33.1781 11.1584 33.4752 11.4861 33.8428 11.7067C 34.2165 11.9272 34.6269 12.0375 35.0741 12.0375C 35.3743 12.0375 35.6469 12.0038 35.8919 11.9364C 36.1431 11.8629 36.385 11.7526 36.6178 11.6056C 36.8506 11.4525 37.065 11.2901 37.2611 11.1186C 37.4571 10.9471 37.7113 10.7143 38.0237 10.4202C 38.1524 10.31 38.3362 10.2548 38.5751 10.2548C 38.8324 10.2548 39.0406 10.3253 39.1999 10.4662C 39.3592 10.6071 39.4388 10.8062 39.4388 11.0635C 39.4388 11.2901 39.35 11.5566 39.1724 11.8629C 38.9947 12.1631 38.7252 12.454 38.3637 12.7358C 38.0084 13.0115 37.5582 13.2412 37.013 13.425C 36.4739 13.6088 35.8521 13.7007 35.1476 13.7007C 33.5365 13.7007 32.2837 13.2412 31.3893 12.3223C 30.495 11.4034 30.0478 10.1568 30.0478 8.58245C 30.0478 7.84121 30.158 7.1551 30.3786 6.52413C 30.5991 5.88703 30.9207 5.34182 31.3434 4.8885C 31.7661 4.43518 32.2868 4.08907 32.9055 3.85016C 33.5242 3.60512 34.2103 3.4826 34.9638 3.4826C 35.944 3.4826 36.7832 3.69088 37.4816 4.10745C 38.1861 4.51788 38.7129 5.05084 39.0621 5.70632C 39.4113 6.36179 39.5858 7.02952 39.5858 7.7095C 39.5858 8.34047 39.4051 8.75091 39.0437 8.94082C 38.6823 9.12459 38.1738 9.21648 37.5183 9.21648ZM 32.6115 7.7922L 37.16 7.7922C 37.0987 6.93457 36.8659 6.29441 36.4616 5.87172C 36.0634 5.4429 35.5366 5.22849 34.8811 5.22849C 34.2563 5.22849 33.7417 5.44596 33.3374 5.88091C 32.9392 6.30972 32.6972 6.94682 32.6115 7.7922Z"/>
<path id="path4_fill" d="M 44.1987 10.0802L 44.1987 12.1753C 44.1987 12.6838 44.0792 13.0666 43.8403 13.3239C 43.6014 13.5751 43.2982 13.7007 42.9306 13.7007C 42.5692 13.7007 42.2721 13.572 42.0393 13.3147C 41.8065 13.0574 41.6901 12.6776 41.6901 12.1753L 41.6901 5.19174C 41.6901 4.06456 42.0975 3.50098 42.9122 3.50098C 43.3288 3.50098 43.629 3.63268 43.8127 3.8961C 43.9965 4.15952 44.0976 4.54851 44.116 5.06309C 44.4162 4.54851 44.7225 4.15952 45.0349 3.8961C 45.3534 3.63268 45.7761 3.50098 46.3029 3.50098C 46.8298 3.50098 47.3413 3.63268 47.8375 3.8961C 48.3337 4.15952 48.5818 4.50869 48.5818 4.94364C 48.5818 5.24993 48.4746 5.50416 48.2602 5.70632C 48.0519 5.90235 47.8252 6.00036 47.5802 6.00036C 47.4883 6.00036 47.2647 5.94523 46.9094 5.83496C 46.5602 5.71857 46.2509 5.66037 45.9813 5.66037C 45.6138 5.66037 45.3136 5.75839 45.0808 5.95442C 44.848 6.14432 44.6673 6.42918 44.5387 6.80899C 44.41 7.1888 44.3212 7.64212 44.2722 8.16895C 44.2232 8.68965 44.1987 9.32675 44.1987 10.0802Z"/>
<path id="path5_fill" d="M 5.22849 8.22408L 2.72911 8.22408L 2.72911 12.0375C 2.72911 12.5827 2.60046 12.9962 2.34317 13.278C 2.08588 13.5598 1.76121 13.7007 1.36915 13.7007C 0.95871 13.7007 0.627909 13.5628 0.376746 13.2872C 0.125582 13.0054 0 12.5949 0 12.0559L 0 1.67238C 0 1.07204 0.137834 0.643224 0.413501 0.385934C 0.689169 0.128645 1.12717 0 1.72752 0L 5.22849 0C 6.26378 0 7.06015 0.0796373 7.61761 0.238912C 8.16895 0.39206 8.64371 0.646287 9.04189 1.00159C 9.44621 1.3569 9.7525 1.79184 9.96078 2.30642C 10.1691 2.821 10.2732 3.3999 10.2732 4.04312C 10.2732 5.41533 9.85052 6.45675 9.00514 7.16735C 8.15976 7.87184 6.90088 8.22408 5.22849 8.22408ZM 4.56689 2.04913L 2.72911 2.04913L 2.72911 6.16576L 4.56689 6.16576C 5.21012 6.16576 5.74614 6.09838 6.17495 5.96361C 6.60989 5.82884 6.94069 5.6083 7.16735 5.302C 7.39401 4.99571 7.50734 4.59446 7.50734 4.09826C 7.50734 3.50404 7.33275 3.02009 6.98358 2.64641C 6.59152 2.24822 5.78595 2.04913 4.56689 2.04913Z"/>
<path id="path6_fill" d="M 19.0119 9.21648L 14.105 9.21648C 14.1111 9.7862 14.2244 10.2885 14.445 10.7235C 14.6716 11.1584 14.9687 11.4861 15.3363 11.7067C 15.71 11.9272 16.1204 12.0375 16.5676 12.0375C 16.8678 12.0375 17.1404 12.0038 17.3854 11.9364C 17.6366 11.8629 17.8786 11.7526 18.1114 11.6056C 18.3441 11.4525 18.5585 11.2901 18.7546 11.1186C 18.9506 10.9471 19.2048 10.7143 19.5173 10.4202C 19.6459 10.31 19.8297 10.2548 20.0686 10.2548C 20.3259 10.2548 20.5342 10.3253 20.6934 10.4662C 20.8527 10.6071 20.9324 10.8062 20.9324 11.0635C 20.9324 11.2901 20.8435 11.5566 20.6659 11.8629C 20.4882 12.1631 20.2187 12.454 19.8572 12.7358C 19.5019 13.0115 19.0517 13.2412 18.5065 13.425C 17.9674 13.6088 17.3456 13.7007 16.6411 13.7007C 15.03 13.7007 13.7772 13.2412 12.8829 12.3223C 11.9885 11.4034 11.5413 10.1568 11.5413 8.58245C 11.5413 7.84121 11.6515 7.1551 11.8721 6.52413C 12.0926 5.88703 12.4142 5.34182 12.8369 4.8885C 13.2596 4.43518 13.7803 4.08907 14.399 3.85016C 15.0178 3.60512 15.7039 3.4826 16.4573 3.4826C 17.4375 3.4826 18.2768 3.69088 18.9751 4.10745C 19.6796 4.51788 20.2064 5.05084 20.5556 5.70632C 20.9048 6.36179 21.0794 7.02952 21.0794 7.7095C 21.0794 8.34047 20.8987 8.75091 20.5372 8.94082C 20.1758 9.12459 19.6673 9.21648 19.0119 9.21648ZM 14.105 7.7922L 18.6535 7.7922C 18.5922 6.93457 18.3595 6.29441 17.9551 5.87172C 17.557 5.4429 17.0301 5.22849 16.3746 5.22849C 15.7498 5.22849 15.2352 5.44596 14.8309 5.88091C 14.4327 6.30972 14.1907 6.94682 14.105 7.7922Z"/>
<path id="path7_fill" d="M 22.9907 3.72151L 23.2663 3.72151L 23.2663 2.21453C 23.2663 1.81022 23.2755 1.49473 23.2939 1.26807C 23.3184 1.03528 23.3797 0.836191 23.4777 0.670791C 23.5757 0.499264 23.7166 0.361431 23.9004 0.25729C 24.0841 0.147023 24.2894 0.0918892 24.516 0.0918892C 24.8346 0.0918892 25.1225 0.211345 25.3798 0.450257C 25.5513 0.609531 25.6585 0.805562 25.7014 1.03835C 25.7504 1.26501 25.7749 1.58968 25.7749 2.01237L 25.7749 3.72151L 26.6938 3.72151C 27.0491 3.72151 27.3186 3.80727 27.5024 3.9788C 27.6923 4.1442 27.7873 4.35861 27.7873 4.62203C 27.7873 4.95895 27.6525 5.1948 27.383 5.32957C 27.1196 5.46434 26.7397 5.53173 26.2435 5.53173L 25.7749 5.53173L 25.7749 10.1446C 25.7749 10.5366 25.7872 10.8399 25.8117 11.0543C 25.8423 11.2625 25.9158 11.4341 26.0322 11.5688C 26.1547 11.6975 26.3507 11.7618 26.6203 11.7618C 26.7673 11.7618 26.9664 11.7373 27.2176 11.6883C 27.4687 11.6332 27.6648 11.6056 27.8057 11.6056C 28.0078 11.6056 28.1885 11.6883 28.3478 11.8537C 28.5132 12.013 28.5959 12.2121 28.5959 12.451C 28.5959 12.8553 28.3754 13.1647 27.9343 13.3791C 27.4932 13.5935 26.8592 13.7007 26.0322 13.7007C 25.2481 13.7007 24.6539 13.569 24.2495 13.3056C 23.8452 13.0421 23.5788 12.6776 23.4501 12.2121C 23.3276 11.7465 23.2663 11.1247 23.2663 10.3467L 23.2663 5.53173L 22.9355 5.53173C 22.5741 5.53173 22.2984 5.44596 22.1085 5.27444C 21.9186 5.10291 21.8237 4.88544 21.8237 4.62203C 21.8237 4.35861 21.9217 4.1442 22.1177 3.9788C 22.3199 3.80727 22.6109 3.72151 22.9907 3.72151Z"/>
<path id="path8_fill" d="M 2.74136 1.6644L 2.74136 11.455L 8.22408 11.455C 8.6157 11.455 9.00733 11.5529 9.20314 11.7487C 9.39895 11.9445 9.59476 12.2382 9.59476 12.5319C 9.59476 12.8257 9.49686 13.1194 9.20314 13.3152C 9.00733 13.511 8.6157 13.6089 8.22408 13.6089L 1.6644 13.6089C 1.07696 13.6089 0.68534 13.511 0.391623 13.2173C 0.0979057 12.9236 0 12.5319 0 11.9445L 0 1.6644C 0 1.07696 0.0979057 0.68534 0.391623 0.391623C 0.68534 0.0979057 0.979057 0 1.37068 0C 1.7623 0 2.15393 0.0979057 2.34974 0.391623C 2.54555 0.68534 2.74136 1.07696 2.74136 1.6644Z"/>
<path id="path9_fill" d="M 0 12.3361L 0 1.56649C 0 1.07696 0.0979057 0.68534 0.293717 0.391623C 0.489529 0.0979057 0.783246 0 1.17487 0C 1.56649 0 1.86021 0.0979057 2.05602 0.391623C 2.25183 0.68534 2.44764 0.979057 2.44764 1.56649L 2.44764 12.434C 2.44764 12.9236 2.34974 13.3152 2.05602 13.6089C 1.7623 13.9026 1.46859 14.0005 1.17487 14.0005C 0.783246 14.0005 0.489529 13.9026 0.293717 13.6089C 0.0979057 13.2173 0 12.8257 0 12.3361Z"/>
<path id="path10_fill" d="M 6.65759 8.71361L 6.65759 8.41989C 6.36387 8.81152 6.07016 9.10523 5.67853 9.39895C 5.38482 9.69267 4.99319 9.88848 4.60157 9.98638C 4.20995 10.0843 3.72042 10.1822 3.23089 10.1822C 2.64345 10.1822 2.05602 10.0843 1.56649 9.79057C 1.07696 9.49686 0.68534 9.20314 0.489529 8.71361C 0.195811 8.22408 0 7.44084 0 6.46178L 0 1.46859C 0 0.979057 0.0979057 0.587434 0.293717 0.391623C 0.489529 0.0979057 0.783246 0 1.17487 0C 1.56649 0 1.86021 0.0979057 2.05602 0.391623C 2.25183 0.68534 2.44764 0.979057 2.44764 1.46859L 2.44764 5.48272C 2.44764 6.07016 2.44764 6.55968 2.54555 6.95131C 2.64345 7.34293 2.83927 7.63665 3.03508 7.83246C 3.32879 8.02827 3.62251 8.12618 4.11204 8.12618C 4.50366 8.12618 4.89529 8.02827 5.28691 7.73455C 5.67853 7.44084 5.97225 7.14712 6.07016 6.7555C 6.16806 6.36387 6.26597 5.58063 6.26597 4.40576L 6.26597 1.46859C 6.26597 0.979057 6.36387 0.587434 6.65759 0.391623C 6.8534 0.0979057 7.14712 0 7.53874 0C 7.93036 0 8.22408 0.0979057 8.41989 0.391623C 8.6157 0.68534 8.71361 0.979057 8.71361 1.46859L 8.71361 8.71361C 8.71361 9.20314 8.6157 9.59476 8.41989 9.79057C 8.22408 9.98638 7.93036 10.1822 7.53874 10.1822C 7.14712 10.1822 6.95131 10.0843 6.65759 9.79057C 6.7555 9.49686 6.65759 9.20314 6.65759 8.71361Z"/>
<path id="path11_fill" d="M 29.5416 2.34974C 28.9542 2.05602 28.1709 2.34974 27.8772 3.03508C 26.7023 5.77644 24.94 6.95131 22.1008 6.95131C 18.9678 6.95131 16.4222 4.40576 16.4222 1.27277C 16.4222 0.587434 15.8348 0 15.1495 0C 14.4641 0 13.8767 0.587434 13.8767 1.27277C 13.8767 4.40576 11.3311 6.95131 8.19814 6.95131C 5.35888 6.95131 3.59657 5.77644 2.4217 3.03508C 2.12799 2.34974 1.44265 2.05602 0.757307 2.34974C 0.0719671 2.64345 -0.123844 3.32879 0.0719671 4.01413C 1.63846 7.63665 4.37982 9.49686 8.19814 9.49686C 11.1353 9.49686 13.6809 7.93036 15.1495 5.58063C 16.618 7.93036 19.1636 9.49686 22.1008 9.49686C 25.9191 9.49686 28.6604 7.63665 30.2269 4.01413C 30.4227 3.32879 30.129 2.64345 29.5416 2.34974Z"/>
<path id="path12_fill" d="M 6.46178 1.46859C 6.46178 2.54555 4.99319 3.81832 3.23089 3.81832C 1.46859 3.81832 0 2.54555 0 1.46859C 0 0.391623 1.46859 0 3.23089 0C 4.99319 0 6.46178 0.391623 6.46178 1.46859Z"/>
</defs>
</svg>
